<svg id="svg11425" height="512" viewBox="0 0 16.933333 16.933334" width="512" xmlns="http://www.w3.org/2000/svg" xmlns:svg="http://www.w3.org/2000/svg"><g id="layer1" transform="translate(0 -280.067)"><path id="path11447" d="m3.9692828 289.06299c-1.9009599 0-3.43958986 1.53812-3.43958986 3.43907v3.70313a.26460982.26460982 0 0 0 .26355001.26562h11.11353505a.26460982.26460982 0 0 0 .26355-.26562v-3.70313c0-1.90095-1.53863-3.43907-3.439585-3.43907z" fill="#ff6b6b" font-variant-ligatures="normal" font-variant-position="normal" font-variant-caps="normal" font-variant-numeric="normal" font-variant-alternates="normal" font-feature-settings="normal" text-indent="0" text-align="start" text-decoration-line="none" text-decoration-style="solid" text-decoration-color="#000000" text-transform="none" text-orientation="mixed" white-space="normal" shape-padding="0" isolation="auto" mix-blend-mode="normal" solid-color="#000000" solid-opacity="1" vector-effect="none"/><path id="path11461" d="m10.318768 294.88142v1.58956h1.58801c.14612-.00053.26411-.11949.26356-.26561v-1.32395z" fill="#fdd5a6"/><path id="path11463" d="m2.3812629 294.88142v1.58957h-1.58800995c-.14612001-.00058-.26412-.1195-.26356001-.26562v-1.32395z" fill="#fdd5a6"/><path id="rect25368" d="m13.229296 287.47588v3.96875c0 .4443-.348657.79297-.792969.79297h-3.7050781v.52929h3.7050781c.72832 0 1.322266-.59395 1.322266-1.32226v-3.96875z" fill="#c8d4d9" font-variant-ligatures="normal" font-variant-position="normal" font-variant-caps="normal" font-variant-numeric="normal" font-variant-alternates="normal" font-feature-settings="normal" text-indent="0" text-align="start" text-decoration-line="none" text-decoration-style="solid" text-decoration-color="#000000" text-transform="none" text-orientation="mixed" white-space="normal" shape-padding="0" isolation="auto" mix-blend-mode="normal" solid-color="#000000" solid-opacity="1" vector-effect="none"/><path id="path7464-6" d="m4.7622549 287.74056v1.58594c0 .0285.005.0569.0137.084 0 0 .0881.25999.3281198.5.2400199.24002.65078.47461 1.2460999.47461.5953102 0 1.00608-.23459 1.2460902-.47461.2400099-.24001.3281299-.5.3281299-.5.009-.0271.0137-.0554.0137-.084v-1.58594z" fill="#fdce97" font-variant-ligatures="normal" font-variant-position="normal" font-variant-caps="normal" font-variant-numeric="normal" font-variant-alternates="normal" font-feature-settings="normal" text-indent="0" text-align="start" text-decoration-line="none" text-decoration-style="solid" text-decoration-color="#000000" text-transform="none" text-orientation="mixed" white-space="normal" shape-padding="0" isolation="auto" mix-blend-mode="normal" solid-color="#000000" solid-opacity="1" vector-effect="none"/><path id="path11465" d="m6.3500129 280.59581c-1.7503701 0-3.1755199 1.42567-3.1755199 3.17603 0 .42242.0681.87154.1813898 1.32189h5.9882552c.1133699-.45037.1818999-.89948.1818999-1.32189 0-1.75037-1.4256549-3.17603-3.176025-3.17603z" fill="#33658a" font-variant-ligatures="normal" font-variant-position="normal" font-variant-caps="normal" font-variant-numeric="normal" font-variant-alternates="normal" font-feature-settings="normal" text-indent="0" text-align="start" text-decoration-line="none" text-decoration-style="solid" text-decoration-color="#000000" text-transform="none" text-orientation="mixed" white-space="normal" shape-padding="0" isolation="auto" mix-blend-mode="normal" solid-color="#000000" solid-opacity="1" vector-effect="none"/><path id="path11467" d="m4.233343 284.97901c-.5693301-.3992-1.3224002.029-1.3224002.63949 0 .82088.66533 1.32731 1.3221402 1.32731z" fill="#fdce97" font-variant-ligatures="normal" font-variant-position="normal" font-variant-caps="normal" font-variant-numeric="normal" font-variant-alternates="normal" font-feature-settings="normal" text-indent="0" text-align="start" text-decoration-line="none" text-decoration-style="solid" text-decoration-color="#000000" text-transform="none" text-orientation="mixed" white-space="normal" shape-padding="0" isolation="auto" mix-blend-mode="normal" solid-color="#000000" solid-opacity="1" vector-effect="none"/><path id="path11469" d="m8.4672429 284.97901c.5693299-.3992 1.3223949.029 1.3223949.63949 0 .82088-.66533 1.32731-1.3221348 1.32731z" fill="#fdce97" font-variant-ligatures="normal" font-variant-position="normal" font-variant-caps="normal" font-variant-numeric="normal" font-variant-alternates="normal" font-feature-settings="normal" text-indent="0" text-align="start" text-decoration-line="none" text-decoration-style="solid" text-decoration-color="#000000" text-transform="none" text-orientation="mixed" white-space="normal" shape-padding="0" isolation="auto" mix-blend-mode="normal" solid-color="#000000" solid-opacity="1" vector-effect="none"/><path id="path11471" d="m6.865743 283.50623a.26460982.26460982 0 0 0 -.2382301.18138s-.1893199.61133-.8066701.61133h-1.5880099a.26460982.26460982 0 0 0 -.2635501.26562v1.58802c0 1.31463 1.0660901 2.38073 2.3807301 2.38073s2.3807201-1.0661 2.3807301-2.38073v-1.58802a.26460982.26460982 0 0 0 -.2635501-.26562h-.5291601c-.6173798 0-.8087399-.61133-.8087399-.61133a.26460982.26460982 0 0 0 -.2635499-.18138z" fill="#fdd5a6" font-variant-ligatures="normal" font-variant-position="normal" font-variant-caps="normal" font-variant-numeric="normal" font-variant-alternates="normal" font-feature-settings="normal" text-indent="0" text-align="start" text-decoration-line="none" text-decoration-style="solid" text-decoration-color="#000000" text-transform="none" text-orientation="mixed" white-space="normal" shape-padding="0" isolation="auto" mix-blend-mode="normal" solid-color="#000000" solid-opacity="1" vector-effect="none"/><path id="path11535" d="m7.93828 291.44463c-.5813672 0-1.0585932.47527-1.0585932 1.05664s.477226 1.05859 1.0585932 1.05859c.5813679 0 1.056641-.47722 1.056641-1.05859s-.4752731-1.05664-1.056641-1.05664z" fill="#dbe9ee" font-variant-ligatures="normal" font-variant-position="normal" font-variant-caps="normal" font-variant-numeric="normal" font-variant-alternates="normal" font-feature-settings="normal" text-indent="0" text-align="start" text-decoration-line="none" text-decoration-style="solid" text-decoration-color="#000000" text-transform="none" text-orientation="mixed" white-space="normal" shape-padding="0" isolation="auto" mix-blend-mode="normal" solid-color="#000000" solid-opacity="1" vector-effect="none"/><path id="path25351" d="m7.93828 291.97197c.295385 0 .5292968.23391.5292968.5293 0 .29538-.2339118.5293-.5292968.5293-.2953841 0-.5292972-.23392-.5292972-.5293 0-.29539.2339131-.5293.5292972-.5293z" fill="#c8d4d9" font-variant-ligatures="normal" font-variant-position="normal" font-variant-caps="normal" font-variant-numeric="normal" font-variant-alternates="normal" font-feature-settings="normal" text-indent="0" text-align="start" text-decoration-line="none" text-decoration-style="solid" text-decoration-color="#000000" text-transform="none" text-orientation="mixed" white-space="normal" shape-padding="0" isolation="auto" mix-blend-mode="normal" solid-color="#000000" solid-opacity="1" vector-effect="none"/><path id="rect25343" d="m11.377733 282.18291c-.435161 0-.794922.35976-.794922.79492v1.85156c0 1.6078 1.302363 2.91016 2.910157 2.91016s2.912109-1.30236 2.912109-2.91016v-1.85156c0-.43516-.35976-.79492-.794922-.79492h-.529297v.5293h.529297c.151154 0 .265625.11448.265625.26562v1.85156c0 1.32379-1.059023 2.38086-2.382812 2.38086s-2.38086-1.05707-2.38086-2.38086v-1.85156c0-.15114.114471-.26562.265625-.26562h.529297v-.5293z" fill="#dbe9ee" font-variant-ligatures="normal" font-variant-position="normal" font-variant-caps="normal" font-variant-numeric="normal" font-variant-alternates="normal" font-feature-settings="normal" text-indent="0" text-align="start" text-decoration-line="none" text-decoration-style="solid" text-decoration-color="#000000" text-transform="none" text-orientation="mixed" white-space="normal" shape-padding="0" isolation="auto" mix-blend-mode="normal" solid-color="#000000" solid-opacity="1" vector-effect="none"/><g fill="#c8d4d9"><path id="path25347" d="m11.903124 281.64971a.26460982.26460982 0 0 0 -.261719.26953v1.05859a.2646485.2646485 0 1 0 .529297 0v-1.05859a.26460982.26460982 0 0 0 -.267578-.26953z" font-variant-ligatures="normal" font-variant-position="normal" font-variant-caps="normal" font-variant-numeric="normal" font-variant-alternates="normal" font-feature-settings="normal" text-indent="0" text-align="start" text-decoration-line="none" text-decoration-style="solid" text-decoration-color="#000000" text-transform="none" text-orientation="mixed" white-space="normal" shape-padding="0" isolation="auto" mix-blend-mode="normal" solid-color="#000000" solid-opacity="1" vector-effect="none"/><path id="path25349" d="m15.076952 281.64971a.26460982.26460982 0 0 0 -.259765.26953v1.05859a.26464803.26464803 0 1 0 .529296 0v-1.05859a.26460982.26460982 0 0 0 -.269531-.26953z" font-variant-ligatures="normal" font-variant-position="normal" font-variant-caps="normal" font-variant-numeric="normal" font-variant-alternates="normal" font-feature-settings="normal" text-indent="0" text-align="start" text-decoration-line="none" text-decoration-style="solid" text-decoration-color="#000000" text-transform="none" text-orientation="mixed" white-space="normal" shape-padding="0" isolation="auto" mix-blend-mode="normal" solid-color="#000000" solid-opacity="1" vector-effect="none"/></g></g></svg>